<?xml version="1.0" standalone="no"?>
<!DOCTYPE svg PUBLIC "-//W3C//DTD SVG 20010904//EN"
 "http://www.w3.org/TR/2001/REC-SVG-20010904/DTD/svg10.dtd">
<svg version="1.0" xmlns="http://www.w3.org/2000/svg"
 width="981.000000pt" height="981.000000pt" viewBox="0 0 981.000000 981.000000"
 preserveAspectRatio="xMidYMid meet">
<metadata>
Created by potrace 1.14, written by Peter Selinger 2001-2017
</metadata>
<g transform="translate(0.000000,981.000000) scale(0.100000,-0.100000)"
fill="#000000" stroke="none">
<path d="M6894 9142 c-62 -22 -122 -68 -156 -119 -14 -21 -947 -1813 -2073
-3983 -1399 -2696 -2051 -3964 -2062 -4005 -27 -104 -5 -208 58 -280 40 -45
66 -59 156 -79 91 -20 174 -20 242 0 112 33 18 -137 1450 2624 718 1383 1638
3156 2045 3940 407 784 751 1452 764 1484 46 113 18 251 -70 338 -63 64 -126
90 -223 95 -59 3 -93 -1 -131 -15z"/>
<path d="M2170 6723 c-25 -8 -62 -27 -82 -42 -106 -76 -2011 -1626 -2032
-1654 -40 -53 -56 -111 -56 -206 0 -101 17 -161 61 -214 17 -21 466 -389 997
-819 532 -430 985 -796 1006 -815 64 -54 136 -75 236 -71 99 5 157 28 221 90
62 60 93 136 94 228 0 66 -5 85 -33 143 l-33 67 -855 691 c-470 380 -854 694
-854 698 0 4 381 315 846 691 540 437 856 699 874 725 149 217 -10 506 -278
505 -37 -1 -87 -8 -112 -17z"/>
<path d="M7386 6715 c-125 -51 -199 -161 -200 -295 -1 -77 10 -116 51 -182 14
-24 320 -277 873 -724 467 -378 850 -691 850 -695 0 -4 -384 -318 -854 -698
l-855 -691 -33 -67 c-28 -58 -33 -77 -33 -143 1 -92 32 -168 94 -228 64 -62
122 -85 221 -90 100 -4 172 17 236 71 21 18 476 386 1009 817 534 431 978 793
988 805 10 11 30 44 44 74 22 46 26 67 25 143 0 101 -19 168 -61 219 -25 30
-1929 1579 -2029 1650 -89 63 -222 77 -326 34z"/>
</g>
</svg>
